<svg width="400" height="328" viewBox="0 0 400 328" fill="none" xmlns="http://www.w3.org/2000/svg">
<g filter="url(#filter0_d_100_3600)">
<path d="M32 40C32 31.1634 39.1634 24 48 24H352C360.837 24 368 31.1634 368 40V272C368 280.837 360.837 288 352 288H48C39.1634 288 32 280.837 32 272V40Z" fill="#18181B"/>
<path d="M117.459 268V259.273H122.871V260.406H118.776V263.065H122.483V264.195H118.776V268H117.459ZM126.728 268.132C126.083 268.132 125.528 267.994 125.062 267.719C124.599 267.44 124.241 267.05 123.988 266.547C123.738 266.041 123.613 265.449 123.613 264.77C123.613 264.099 123.738 263.509 123.988 262.997C124.241 262.486 124.593 262.087 125.045 261.8C125.5 261.513 126.031 261.369 126.639 261.369C127.008 261.369 127.366 261.43 127.713 261.553C128.059 261.675 128.37 261.866 128.646 262.128C128.922 262.389 129.139 262.729 129.298 263.146C129.457 263.561 129.537 264.065 129.537 264.659V265.111H124.333V264.156H128.288C128.288 263.821 128.22 263.524 128.083 263.266C127.947 263.004 127.755 262.798 127.508 262.648C127.264 262.497 126.977 262.422 126.647 262.422C126.289 262.422 125.977 262.51 125.71 262.686C125.446 262.859 125.241 263.087 125.096 263.368C124.954 263.646 124.883 263.949 124.883 264.276V265.021C124.883 265.459 124.96 265.831 125.113 266.138C125.27 266.445 125.487 266.679 125.765 266.841C126.044 267 126.369 267.08 126.741 267.08C126.983 267.08 127.203 267.045 127.402 266.977C127.6 266.906 127.772 266.801 127.917 266.662C128.062 266.523 128.173 266.351 128.25 266.146L129.456 266.364C129.359 266.719 129.186 267.03 128.936 267.297C128.689 267.561 128.377 267.767 128.002 267.915C127.63 268.06 127.206 268.132 126.728 268.132ZM130.95 268V261.455H132.224V268H130.95ZM131.594 260.445C131.372 260.445 131.182 260.371 131.023 260.223C130.866 260.072 130.788 259.893 130.788 259.686C130.788 259.476 130.866 259.297 131.023 259.149C131.182 258.999 131.372 258.923 131.594 258.923C131.815 258.923 132.004 258.999 132.161 259.149C132.32 259.297 132.399 259.476 132.399 259.686C132.399 259.893 132.32 260.072 132.161 260.223C132.004 260.371 131.815 260.445 131.594 260.445ZM136.994 261.455V262.477H133.419V261.455H136.994ZM134.377 259.886H135.652V266.078C135.652 266.325 135.689 266.511 135.762 266.636C135.836 266.759 135.931 266.842 136.048 266.888C136.167 266.93 136.297 266.952 136.436 266.952C136.538 266.952 136.627 266.945 136.704 266.93C136.781 266.916 136.841 266.905 136.883 266.896L137.113 267.949C137.039 267.977 136.934 268.006 136.798 268.034C136.662 268.065 136.491 268.082 136.287 268.085C135.951 268.091 135.639 268.031 135.349 267.906C135.059 267.781 134.825 267.588 134.646 267.327C134.467 267.065 134.377 266.737 134.377 266.342V259.886ZM141.09 268.132C140.477 268.132 139.941 267.991 139.484 267.71C139.026 267.429 138.671 267.036 138.418 266.53C138.165 266.024 138.039 265.433 138.039 264.757C138.039 264.078 138.165 263.484 138.418 262.976C138.671 262.467 139.026 262.072 139.484 261.791C139.941 261.51 140.477 261.369 141.09 261.369C141.704 261.369 142.239 261.51 142.697 261.791C143.154 262.072 143.509 262.467 143.762 262.976C144.015 263.484 144.141 264.078 144.141 264.757C144.141 265.433 144.015 266.024 143.762 266.53C143.509 267.036 143.154 267.429 142.697 267.71C142.239 267.991 141.704 268.132 141.09 268.132ZM141.094 267.062C141.492 267.062 141.822 266.957 142.083 266.747C142.344 266.537 142.538 266.257 142.663 265.908C142.79 265.558 142.854 265.173 142.854 264.753C142.854 264.335 142.79 263.952 142.663 263.602C142.538 263.25 142.344 262.967 142.083 262.754C141.822 262.541 141.492 262.435 141.094 262.435C140.694 262.435 140.362 262.541 140.097 262.754C139.836 262.967 139.641 263.25 139.513 263.602C139.388 263.952 139.326 264.335 139.326 264.753C139.326 265.173 139.388 265.558 139.513 265.908C139.641 266.257 139.836 266.537 140.097 266.747C140.362 266.957 140.694 267.062 141.094 267.062ZM151.496 268.132C150.863 268.132 150.317 267.989 149.86 267.702C149.406 267.412 149.056 267.013 148.812 266.504C148.567 265.996 148.445 265.413 148.445 264.757C148.445 264.092 148.57 263.506 148.82 262.997C149.07 262.486 149.423 262.087 149.877 261.8C150.332 261.513 150.867 261.369 151.484 261.369C151.981 261.369 152.424 261.462 152.813 261.646C153.202 261.828 153.516 262.084 153.755 262.413C153.996 262.743 154.14 263.128 154.185 263.568H152.945C152.877 263.261 152.721 262.997 152.477 262.776C152.235 262.554 151.911 262.443 151.505 262.443C151.15 262.443 150.839 262.537 150.572 262.724C150.308 262.909 150.102 263.173 149.954 263.517C149.806 263.858 149.732 264.261 149.732 264.727C149.732 265.205 149.805 265.616 149.95 265.963C150.094 266.31 150.299 266.578 150.563 266.768C150.83 266.959 151.144 267.054 151.505 267.054C151.746 267.054 151.965 267.01 152.161 266.922C152.36 266.831 152.526 266.702 152.66 266.534C152.796 266.366 152.891 266.165 152.945 265.929H154.185C154.14 266.352 154.002 266.73 153.772 267.062C153.542 267.395 153.234 267.656 152.847 267.847C152.464 268.037 152.013 268.132 151.496 268.132ZM158.305 268.132C157.691 268.132 157.156 267.991 156.699 267.71C156.241 267.429 155.886 267.036 155.633 266.53C155.38 266.024 155.254 265.433 155.254 264.757C155.254 264.078 155.38 263.484 155.633 262.976C155.886 262.467 156.241 262.072 156.699 261.791C157.156 261.51 157.691 261.369 158.305 261.369C158.919 261.369 159.454 261.51 159.912 261.791C160.369 262.072 160.724 262.467 160.977 262.976C161.23 263.484 161.356 264.078 161.356 264.757C161.356 265.433 161.23 266.024 160.977 266.53C160.724 267.036 160.369 267.429 159.912 267.71C159.454 267.991 158.919 268.132 158.305 268.132ZM158.309 267.062C158.707 267.062 159.037 266.957 159.298 266.747C159.559 266.537 159.752 266.257 159.877 265.908C160.005 265.558 160.069 265.173 160.069 264.753C160.069 264.335 160.005 263.952 159.877 263.602C159.752 263.25 159.559 262.967 159.298 262.754C159.037 262.541 158.707 262.435 158.309 262.435C157.909 262.435 157.576 262.541 157.312 262.754C157.051 262.967 156.856 263.25 156.728 263.602C156.603 263.952 156.541 264.335 156.541 264.753C156.541 265.173 156.603 265.558 156.728 265.908C156.856 266.257 157.051 266.537 157.312 266.747C157.576 266.957 157.909 267.062 158.309 267.062ZM162.778 268V261.455H164.001V262.52H164.082C164.219 262.159 164.442 261.878 164.751 261.676C165.061 261.472 165.432 261.369 165.864 261.369C166.301 261.369 166.668 261.472 166.963 261.676C167.261 261.881 167.482 262.162 167.624 262.52H167.692C167.848 262.17 168.097 261.892 168.438 261.685C168.778 261.474 169.185 261.369 169.656 261.369C170.25 261.369 170.734 261.555 171.109 261.928C171.487 262.3 171.676 262.861 171.676 263.611V268H170.402V263.73C170.402 263.287 170.281 262.966 170.04 262.767C169.798 262.568 169.51 262.469 169.175 262.469C168.76 262.469 168.438 262.597 168.207 262.852C167.977 263.105 167.862 263.43 167.862 263.828V268H166.592V263.649C166.592 263.294 166.482 263.009 166.26 262.793C166.038 262.577 165.75 262.469 165.395 262.469C165.153 262.469 164.93 262.533 164.726 262.661C164.524 262.786 164.361 262.96 164.236 263.185C164.114 263.409 164.053 263.669 164.053 263.964V268H162.778ZM181.839 268.136L177.459 263.756C177.109 263.406 176.876 263 176.76 262.537C176.646 262.074 176.648 261.614 176.764 261.156C176.881 260.696 177.112 260.295 177.459 259.955C177.814 259.605 178.219 259.374 178.673 259.26C179.131 259.143 179.587 259.143 180.041 259.26C180.499 259.376 180.905 259.608 181.26 259.955L181.839 260.517L182.419 259.955C182.777 259.608 183.183 259.376 183.638 259.26C184.092 259.143 184.547 259.143 185.001 259.26C185.459 259.374 185.865 259.605 186.22 259.955C186.567 260.295 186.798 260.696 186.915 261.156C187.031 261.614 187.031 262.074 186.915 262.537C186.801 263 186.57 263.406 186.22 263.756L181.839 268.136ZM192.005 270.455V261.455H193.249V262.516H193.356C193.43 262.379 193.536 262.222 193.675 262.043C193.815 261.864 194.008 261.707 194.255 261.574C194.502 261.438 194.829 261.369 195.235 261.369C195.763 261.369 196.235 261.503 196.65 261.77C197.065 262.037 197.39 262.422 197.626 262.925C197.864 263.428 197.984 264.033 197.984 264.74C197.984 265.447 197.866 266.054 197.63 266.56C197.394 267.062 197.07 267.45 196.658 267.723C196.246 267.993 195.776 268.128 195.248 268.128C194.85 268.128 194.525 268.061 194.272 267.928C194.022 267.794 193.826 267.638 193.684 267.459C193.542 267.28 193.433 267.121 193.356 266.982H193.279V270.455H192.005ZM193.254 264.727C193.254 265.187 193.32 265.591 193.454 265.938C193.587 266.284 193.781 266.555 194.033 266.751C194.286 266.945 194.596 267.041 194.962 267.041C195.343 267.041 195.661 266.94 195.917 266.739C196.173 266.534 196.366 266.257 196.496 265.908C196.63 265.558 196.697 265.165 196.697 264.727C196.697 264.295 196.631 263.908 196.501 263.564C196.373 263.22 196.18 262.949 195.921 262.75C195.665 262.551 195.346 262.452 194.962 262.452C194.593 262.452 194.281 262.547 194.025 262.737C193.772 262.928 193.58 263.193 193.45 263.534C193.319 263.875 193.254 264.273 193.254 264.727ZM202.232 268.132C201.587 268.132 201.032 267.994 200.566 267.719C200.103 267.44 199.745 267.05 199.492 266.547C199.242 266.041 199.117 265.449 199.117 264.77C199.117 264.099 199.242 263.509 199.492 262.997C199.745 262.486 200.097 262.087 200.549 261.8C201.004 261.513 201.535 261.369 202.143 261.369C202.512 261.369 202.87 261.43 203.217 261.553C203.563 261.675 203.874 261.866 204.15 262.128C204.425 262.389 204.643 262.729 204.802 263.146C204.961 263.561 205.04 264.065 205.04 264.659V265.111H199.837V264.156H203.792C203.792 263.821 203.724 263.524 203.587 263.266C203.451 263.004 203.259 262.798 203.012 262.648C202.768 262.497 202.481 262.422 202.151 262.422C201.793 262.422 201.481 262.51 201.214 262.686C200.95 262.859 200.745 263.087 200.6 263.368C200.458 263.646 200.387 263.949 200.387 264.276V265.021C200.387 265.459 200.464 265.831 200.617 266.138C200.773 266.445 200.991 266.679 201.269 266.841C201.548 267 201.873 267.08 202.245 267.08C202.487 267.08 202.707 267.045 202.906 266.977C203.104 266.906 203.276 266.801 203.421 266.662C203.566 266.523 203.677 266.351 203.754 266.146L204.96 266.364C204.863 266.719 204.69 267.03 204.44 267.297C204.192 267.561 203.881 267.767 203.506 267.915C203.134 268.06 202.71 268.132 202.232 268.132ZM207.728 259.273V268H206.454V259.273H207.728ZM211.347 268.145C210.933 268.145 210.558 268.068 210.222 267.915C209.887 267.759 209.621 267.533 209.425 267.237C209.232 266.942 209.136 266.58 209.136 266.151C209.136 265.781 209.207 265.477 209.349 265.239C209.491 265 209.683 264.811 209.924 264.672C210.165 264.533 210.435 264.428 210.734 264.357C211.032 264.286 211.336 264.232 211.646 264.195C212.038 264.149 212.356 264.112 212.6 264.084C212.844 264.053 213.022 264.003 213.133 263.935C213.244 263.866 213.299 263.756 213.299 263.602V263.572C213.299 263.2 213.194 262.912 212.984 262.707C212.776 262.503 212.467 262.401 212.055 262.401C211.626 262.401 211.288 262.496 211.04 262.686C210.796 262.874 210.627 263.082 210.533 263.312L209.336 263.04C209.478 262.642 209.685 262.321 209.958 262.077C210.234 261.83 210.55 261.651 210.908 261.54C211.266 261.426 211.643 261.369 212.038 261.369C212.299 261.369 212.576 261.401 212.869 261.463C213.164 261.523 213.44 261.634 213.695 261.795C213.954 261.957 214.165 262.189 214.33 262.49C214.495 262.788 214.577 263.176 214.577 263.653V268H213.333V267.105H213.282C213.2 267.27 213.076 267.432 212.911 267.591C212.746 267.75 212.535 267.882 212.276 267.987C212.018 268.092 211.708 268.145 211.347 268.145ZM211.624 267.122C211.977 267.122 212.278 267.053 212.528 266.913C212.781 266.774 212.972 266.592 213.103 266.368C213.237 266.141 213.303 265.898 213.303 265.639V264.795C213.258 264.841 213.17 264.884 213.039 264.923C212.911 264.96 212.765 264.993 212.6 265.021C212.435 265.047 212.275 265.071 212.119 265.094C211.962 265.114 211.832 265.131 211.727 265.145C211.479 265.176 211.254 265.229 211.049 265.303C210.847 265.376 210.685 265.483 210.563 265.622C210.444 265.759 210.384 265.94 210.384 266.168C210.384 266.483 210.501 266.722 210.734 266.884C210.967 267.043 211.263 267.122 211.624 267.122ZM219.553 268V259.273H222.663C223.339 259.273 223.901 259.389 224.347 259.622C224.795 259.855 225.131 260.178 225.352 260.589C225.574 260.999 225.685 261.472 225.685 262.009C225.685 262.543 225.572 263.013 225.348 263.419C225.126 263.822 224.791 264.136 224.342 264.361C223.896 264.585 223.335 264.697 222.659 264.697H220.303V263.564H222.54C222.966 263.564 223.313 263.503 223.58 263.381C223.849 263.259 224.047 263.081 224.172 262.848C224.297 262.615 224.359 262.335 224.359 262.009C224.359 261.679 224.295 261.393 224.168 261.152C224.043 260.911 223.845 260.726 223.575 260.598C223.308 260.467 222.957 260.402 222.523 260.402H220.869V268H219.553ZM223.861 264.062L226.017 268H224.517L222.403 264.062H223.861ZM229.86 268.132C229.246 268.132 228.711 267.991 228.253 267.71C227.796 267.429 227.441 267.036 227.188 266.53C226.935 266.024 226.809 265.433 226.809 264.757C226.809 264.078 226.935 263.484 227.188 262.976C227.441 262.467 227.796 262.072 228.253 261.791C228.711 261.51 229.246 261.369 229.86 261.369C230.473 261.369 231.009 261.51 231.466 261.791C231.924 262.072 232.279 262.467 232.532 262.976C232.784 263.484 232.911 264.078 232.911 264.757C232.911 265.433 232.784 266.024 232.532 266.53C232.279 267.036 231.924 267.429 231.466 267.71C231.009 267.991 230.473 268.132 229.86 268.132ZM229.864 267.062C230.262 267.062 230.591 266.957 230.853 266.747C231.114 266.537 231.307 266.257 231.432 265.908C231.56 265.558 231.624 265.173 231.624 264.753C231.624 264.335 231.56 263.952 231.432 263.602C231.307 263.25 231.114 262.967 230.853 262.754C230.591 262.541 230.262 262.435 229.864 262.435C229.463 262.435 229.131 262.541 228.867 262.754C228.605 262.967 228.411 263.25 228.283 263.602C228.158 263.952 228.096 264.335 228.096 264.753C228.096 265.173 228.158 265.558 228.283 265.908C228.411 266.257 228.605 266.537 228.867 266.747C229.131 266.957 229.463 267.062 229.864 267.062ZM237.09 268.132C236.457 268.132 235.911 267.989 235.454 267.702C234.999 267.412 234.65 267.013 234.406 266.504C234.161 265.996 234.039 265.413 234.039 264.757C234.039 264.092 234.164 263.506 234.414 262.997C234.664 262.486 235.016 262.087 235.471 261.8C235.925 261.513 236.461 261.369 237.077 261.369C237.575 261.369 238.018 261.462 238.407 261.646C238.796 261.828 239.11 262.084 239.349 262.413C239.59 262.743 239.734 263.128 239.779 263.568H238.539C238.471 263.261 238.315 262.997 238.07 262.776C237.829 262.554 237.505 262.443 237.099 262.443C236.744 262.443 236.433 262.537 236.165 262.724C235.901 262.909 235.695 263.173 235.548 263.517C235.4 263.858 235.326 264.261 235.326 264.727C235.326 265.205 235.398 265.616 235.543 265.963C235.688 266.31 235.893 266.578 236.157 266.768C236.424 266.959 236.738 267.054 237.099 267.054C237.34 267.054 237.559 267.01 237.755 266.922C237.954 266.831 238.12 266.702 238.254 266.534C238.39 266.366 238.485 266.165 238.539 265.929H239.779C239.734 266.352 239.596 266.73 239.366 267.062C239.136 267.395 238.827 267.656 238.441 267.847C238.058 268.037 237.607 268.132 237.09 268.132ZM242.314 265.78L242.305 264.224H242.527L245.135 261.455H246.66L243.686 264.608H243.485L242.314 265.78ZM241.142 268V259.273H242.416V268H241.142ZM245.275 268L242.931 264.889L243.809 263.999L246.839 268H245.275ZM250.373 268.132C249.728 268.132 249.173 267.994 248.707 267.719C248.244 267.44 247.886 267.05 247.633 266.547C247.383 266.041 247.258 265.449 247.258 264.77C247.258 264.099 247.383 263.509 247.633 262.997C247.886 262.486 248.238 262.087 248.69 261.8C249.144 261.513 249.675 261.369 250.283 261.369C250.653 261.369 251.011 261.43 251.357 261.553C251.704 261.675 252.015 261.866 252.29 262.128C252.566 262.389 252.783 262.729 252.942 263.146C253.102 263.561 253.181 264.065 253.181 264.659V265.111H247.978V264.156H251.933C251.933 263.821 251.864 263.524 251.728 263.266C251.592 263.004 251.4 262.798 251.153 262.648C250.908 262.497 250.621 262.422 250.292 262.422C249.934 262.422 249.621 262.51 249.354 262.686C249.09 262.859 248.886 263.087 248.741 263.368C248.599 263.646 248.528 263.949 248.528 264.276V265.021C248.528 265.459 248.604 265.831 248.758 266.138C248.914 266.445 249.131 266.679 249.41 266.841C249.688 267 250.013 267.08 250.386 267.08C250.627 267.08 250.847 267.045 251.046 266.977C251.245 266.906 251.417 266.801 251.562 266.662C251.707 266.523 251.817 266.351 251.894 266.146L253.1 266.364C253.004 266.719 252.83 267.03 252.58 267.297C252.333 267.561 252.022 267.767 251.647 267.915C251.275 268.06 250.85 268.132 250.373 268.132ZM257.65 261.455V262.477H254.075V261.455H257.65ZM255.034 259.886H256.308V266.078C256.308 266.325 256.345 266.511 256.419 266.636C256.493 266.759 256.588 266.842 256.704 266.888C256.824 266.93 256.953 266.952 257.092 266.952C257.194 266.952 257.284 266.945 257.36 266.93C257.437 266.916 257.497 266.905 257.539 266.896L257.77 267.949C257.696 267.977 257.591 268.006 257.454 268.034C257.318 268.065 257.147 268.082 256.943 268.085C256.608 268.091 256.295 268.031 256.005 267.906C255.716 267.781 255.481 267.588 255.302 267.327C255.123 267.065 255.034 266.737 255.034 266.342V259.886ZM263.859 263.053L262.704 263.257C262.656 263.109 262.579 262.969 262.474 262.835C262.372 262.702 262.233 262.592 262.056 262.507C261.88 262.422 261.66 262.379 261.396 262.379C261.035 262.379 260.734 262.46 260.493 262.622C260.251 262.781 260.13 262.987 260.13 263.24C260.13 263.459 260.211 263.635 260.373 263.768C260.535 263.902 260.797 264.011 261.157 264.097L262.197 264.335C262.799 264.474 263.248 264.689 263.544 264.979C263.839 265.268 263.987 265.645 263.987 266.108C263.987 266.5 263.873 266.849 263.646 267.156C263.422 267.46 263.108 267.699 262.704 267.872C262.304 268.045 261.839 268.132 261.311 268.132C260.578 268.132 259.98 267.976 259.517 267.663C259.054 267.348 258.77 266.901 258.664 266.321L259.896 266.134C259.973 266.455 260.13 266.697 260.369 266.862C260.608 267.024 260.919 267.105 261.302 267.105C261.72 267.105 262.054 267.018 262.304 266.845C262.554 266.669 262.679 266.455 262.679 266.202C262.679 265.997 262.602 265.825 262.449 265.686C262.298 265.547 262.066 265.442 261.754 265.371L260.646 265.128C260.035 264.989 259.583 264.767 259.291 264.463C259.001 264.159 258.856 263.774 258.856 263.308C258.856 262.922 258.964 262.584 259.18 262.294C259.396 262.004 259.694 261.778 260.075 261.616C260.456 261.452 260.892 261.369 261.383 261.369C262.091 261.369 262.647 261.523 263.054 261.83C263.46 262.134 263.728 262.541 263.859 263.053ZM268.209 268.132C267.564 268.132 267.009 267.994 266.543 267.719C266.08 267.44 265.722 267.05 265.469 266.547C265.219 266.041 265.094 265.449 265.094 264.77C265.094 264.099 265.219 263.509 265.469 262.997C265.722 262.486 266.074 262.087 266.526 261.8C266.98 261.513 267.511 261.369 268.119 261.369C268.489 261.369 268.847 261.43 269.193 261.553C269.54 261.675 269.851 261.866 270.126 262.128C270.402 262.389 270.619 262.729 270.778 263.146C270.938 263.561 271.017 264.065 271.017 264.659V265.111H265.814V264.156H269.768C269.768 263.821 269.7 263.524 269.564 263.266C269.428 263.004 269.236 262.798 268.989 262.648C268.744 262.497 268.457 262.422 268.128 262.422C267.77 262.422 267.457 262.51 267.19 262.686C266.926 262.859 266.722 263.087 266.577 263.368C266.435 263.646 266.364 263.949 266.364 264.276V265.021C266.364 265.459 266.44 265.831 266.594 266.138C266.75 266.445 266.967 266.679 267.246 266.841C267.524 267 267.849 267.08 268.222 267.08C268.463 267.08 268.683 267.045 268.882 266.977C269.081 266.906 269.253 266.801 269.398 266.662C269.543 266.523 269.653 266.351 269.73 266.146L270.936 266.364C270.839 266.719 270.666 267.03 270.416 267.297C270.169 267.561 269.858 267.767 269.483 267.915C269.111 268.06 268.686 268.132 268.209 268.132ZM274.336 268.145C273.921 268.145 273.546 268.068 273.211 267.915C272.875 267.759 272.61 267.533 272.414 267.237C272.221 266.942 272.124 266.58 272.124 266.151C272.124 265.781 272.195 265.477 272.337 265.239C272.479 265 272.671 264.811 272.912 264.672C273.154 264.533 273.424 264.428 273.722 264.357C274.02 264.286 274.324 264.232 274.634 264.195C275.026 264.149 275.344 264.112 275.588 264.084C275.833 264.053 276.01 264.003 276.121 263.935C276.232 263.866 276.287 263.756 276.287 263.602V263.572C276.287 263.2 276.182 262.912 275.972 262.707C275.765 262.503 275.455 262.401 275.043 262.401C274.614 262.401 274.276 262.496 274.029 262.686C273.784 262.874 273.615 263.082 273.522 263.312L272.324 263.04C272.466 262.642 272.674 262.321 272.946 262.077C273.222 261.83 273.539 261.651 273.897 261.54C274.255 261.426 274.631 261.369 275.026 261.369C275.287 261.369 275.564 261.401 275.857 261.463C276.152 261.523 276.428 261.634 276.684 261.795C276.942 261.957 277.154 262.189 277.319 262.49C277.483 262.788 277.566 263.176 277.566 263.653V268H276.321V267.105H276.27C276.188 267.27 276.064 267.432 275.9 267.591C275.735 267.75 275.523 267.882 275.265 267.987C275.006 268.092 274.696 268.145 274.336 268.145ZM274.613 267.122C274.965 267.122 275.266 267.053 275.516 266.913C275.769 266.774 275.961 266.592 276.091 266.368C276.225 266.141 276.292 265.898 276.292 265.639V264.795C276.246 264.841 276.158 264.884 276.027 264.923C275.9 264.96 275.753 264.993 275.588 265.021C275.424 265.047 275.263 265.071 275.107 265.094C274.951 265.114 274.82 265.131 274.715 265.145C274.468 265.176 274.242 265.229 274.037 265.303C273.836 265.376 273.674 265.483 273.551 265.622C273.432 265.759 273.373 265.94 273.373 266.168C273.373 266.483 273.489 266.722 273.722 266.884C273.955 267.043 274.252 267.122 274.613 267.122ZM282.318 261.455V262.477H278.743V261.455H282.318ZM279.702 259.886H280.976V266.078C280.976 266.325 281.013 266.511 281.087 266.636C281.161 266.759 281.256 266.842 281.372 266.888C281.491 266.93 281.621 266.952 281.76 266.952C281.862 266.952 281.952 266.945 282.028 266.93C282.105 266.916 282.165 266.905 282.207 266.896L282.438 267.949C282.364 267.977 282.259 268.006 282.122 268.034C281.986 268.065 281.815 268.082 281.611 268.085C281.276 268.091 280.963 268.031 280.673 267.906C280.384 267.781 280.149 267.588 279.97 267.327C279.791 267.065 279.702 266.737 279.702 266.342V259.886Z" fill="#A1A1AA"/>
<a href="https://www.rocketseat.com.br/">
<rect fill="black" fill-opacity="0" x="102.094" y="0.738636" width="64.2742" height="14.5227"/>
</a>
<path d="M344.5 47.5L335.5 56.5" stroke="#A1A1AA" stroke-width="1.5" stroke-linecap="round" stroke-linejoin="round"/>
<path d="M344.5 56.5L335.5 47.5" stroke="#A1A1AA" stroke-width="1.5" stroke-linecap="round" stroke-linejoin="round"/>
<path d="M218.5 114C218.5 116.209 216.709 118 214.5 118H186.5C184.291 118 182.5 116.209 182.5 114V86C182.5 83.791 184.291 82 186.5 82H214.5C216.709 82 218.5 83.791 218.5 86V114Z" fill="#77B255"/>
<path d="M211.78 88.362C210.624 87.611 209.076 87.94 208.322 89.098L197.436 105.877L192.407 101.227C191.393 100.289 189.811 100.352 188.874 101.365C187.937 102.379 187.999 103.961 189.013 104.898L196.222 111.564C196.702 112.009 197.312 112.229 197.918 112.229C198.591 112.229 199.452 111.947 200.017 111.09C200.349 110.584 212.517 91.82 212.517 91.82C213.268 90.661 212.938 89.113 211.78 88.362Z" fill="white"/>
<path d="M77.9361 147H75.6065L80.8409 132.455H83.3764L88.6108 147H86.2812L82.169 135.097H82.0554L77.9361 147ZM78.3267 141.304H85.8835V143.151H78.3267V141.304ZM94.9389 151.318C94.0724 151.318 93.3267 151.205 92.7017 150.977C92.0814 150.75 91.5748 150.449 91.1818 150.075C90.7888 149.701 90.4953 149.292 90.3011 148.847L92.1264 148.094C92.2543 148.302 92.4247 148.522 92.6378 148.754C92.8556 148.991 93.1491 149.192 93.5185 149.358C93.8925 149.524 94.3731 149.607 94.9602 149.607C95.7652 149.607 96.4304 149.41 96.956 149.017C97.4815 148.629 97.7443 148.009 97.7443 147.156V145.011H97.6094C97.4815 145.243 97.2969 145.501 97.0554 145.786C96.8187 146.07 96.492 146.316 96.0753 146.524C95.6586 146.732 95.1165 146.837 94.4489 146.837C93.5871 146.837 92.8106 146.635 92.1193 146.233C91.4328 145.826 90.8883 145.227 90.4858 144.436C90.0881 143.641 89.8892 142.663 89.8892 141.503C89.8892 140.343 90.0857 139.348 90.4787 138.52C90.8764 137.691 91.4209 137.057 92.1122 136.616C92.8035 136.171 93.5871 135.949 94.4631 135.949C95.1402 135.949 95.687 136.062 96.1037 136.29C96.5204 136.512 96.8447 136.773 97.0767 137.071C97.3134 137.369 97.4957 137.632 97.6236 137.859H97.7798V136.091H99.8608V147.241C99.8608 148.179 99.643 148.948 99.2074 149.55C98.7718 150.151 98.1823 150.596 97.4389 150.885C96.7003 151.174 95.867 151.318 94.9389 151.318ZM94.9176 145.075C95.5284 145.075 96.0445 144.933 96.4659 144.649C96.892 144.36 97.214 143.948 97.4318 143.413C97.6544 142.874 97.7656 142.227 97.7656 141.474C97.7656 140.741 97.6567 140.094 97.4389 139.536C97.2211 138.977 96.9015 138.541 96.4801 138.229C96.0587 137.911 95.5379 137.753 94.9176 137.753C94.2784 137.753 93.7457 137.919 93.3196 138.25C92.8935 138.577 92.5715 139.022 92.3537 139.585C92.1406 140.149 92.0341 140.778 92.0341 141.474C92.0341 142.189 92.143 142.817 92.3608 143.357C92.5786 143.896 92.9006 144.318 93.3267 144.621C93.7576 144.924 94.2879 145.075 94.9176 145.075ZM102.709 147V136.091H104.761V137.824H104.875C105.074 137.237 105.424 136.775 105.926 136.439C106.433 136.098 107.006 135.928 107.645 135.928C107.777 135.928 107.934 135.932 108.114 135.942C108.298 135.951 108.443 135.963 108.547 135.977V138.009C108.462 137.985 108.31 137.959 108.092 137.93C107.875 137.897 107.657 137.881 107.439 137.881C106.937 137.881 106.49 137.987 106.097 138.2C105.708 138.409 105.401 138.7 105.173 139.074C104.946 139.443 104.832 139.865 104.832 140.338V147H102.709ZM113.462 147.241C112.77 147.241 112.145 147.114 111.587 146.858C111.028 146.598 110.585 146.221 110.259 145.729C109.937 145.236 109.776 144.633 109.776 143.918C109.776 143.302 109.894 142.795 110.131 142.398C110.367 142 110.687 141.685 111.089 141.453C111.492 141.221 111.942 141.046 112.439 140.928C112.936 140.809 113.443 140.719 113.959 140.658C114.612 140.582 115.143 140.52 115.55 140.473C115.957 140.421 116.253 140.338 116.438 140.224C116.622 140.111 116.714 139.926 116.714 139.67V139.621C116.714 139 116.539 138.52 116.189 138.179C115.843 137.838 115.327 137.668 114.641 137.668C113.926 137.668 113.362 137.826 112.95 138.143C112.543 138.456 112.261 138.804 112.105 139.188L110.109 138.733C110.346 138.07 110.692 137.535 111.146 137.128C111.606 136.716 112.134 136.418 112.73 136.233C113.327 136.044 113.954 135.949 114.612 135.949C115.048 135.949 115.509 136.001 115.997 136.105C116.49 136.205 116.949 136.389 117.375 136.659C117.806 136.929 118.159 137.315 118.433 137.817C118.708 138.314 118.845 138.96 118.845 139.756V147H116.771V145.509H116.686C116.549 145.783 116.343 146.053 116.068 146.318C115.794 146.583 115.441 146.804 115.01 146.979C114.579 147.154 114.063 147.241 113.462 147.241ZM113.923 145.537C114.51 145.537 115.012 145.421 115.429 145.189C115.85 144.957 116.17 144.654 116.388 144.28C116.61 143.901 116.722 143.496 116.722 143.065V141.659C116.646 141.735 116.499 141.806 116.281 141.872C116.068 141.934 115.824 141.988 115.55 142.036C115.275 142.078 115.008 142.118 114.747 142.156C114.487 142.189 114.269 142.218 114.094 142.241C113.682 142.294 113.305 142.381 112.964 142.504C112.628 142.627 112.358 142.805 112.155 143.037C111.956 143.264 111.857 143.567 111.857 143.946C111.857 144.472 112.051 144.869 112.439 145.139C112.827 145.404 113.322 145.537 113.923 145.537ZM125.757 147.213C124.877 147.213 124.091 146.988 123.4 146.538C122.713 146.084 122.173 145.437 121.78 144.599C121.392 143.757 121.198 142.746 121.198 141.567C121.198 140.388 121.394 139.379 121.787 138.541C122.185 137.703 122.73 137.062 123.421 136.616C124.112 136.171 124.896 135.949 125.772 135.949C126.449 135.949 126.993 136.062 127.405 136.29C127.822 136.512 128.144 136.773 128.371 137.071C128.603 137.369 128.783 137.632 128.911 137.859H129.039V132.455H131.162V147H129.088V145.303H128.911C128.783 145.535 128.598 145.8 128.357 146.098C128.12 146.396 127.793 146.657 127.377 146.879C126.96 147.102 126.42 147.213 125.757 147.213ZM126.226 145.402C126.837 145.402 127.353 145.241 127.775 144.919C128.201 144.592 128.523 144.14 128.74 143.562C128.963 142.985 129.074 142.312 129.074 141.545C129.074 140.788 128.965 140.125 128.748 139.557C128.53 138.989 128.21 138.546 127.789 138.229C127.367 137.911 126.846 137.753 126.226 137.753C125.587 137.753 125.054 137.919 124.628 138.25C124.202 138.581 123.88 139.034 123.662 139.607C123.449 140.179 123.343 140.826 123.343 141.545C123.343 142.275 123.452 142.93 123.669 143.513C123.887 144.095 124.209 144.557 124.635 144.898C125.066 145.234 125.596 145.402 126.226 145.402ZM138.895 147.22C137.82 147.22 136.894 146.991 136.118 146.531C135.346 146.067 134.75 145.416 134.328 144.578C133.911 143.735 133.703 142.748 133.703 141.616C133.703 140.499 133.911 139.514 134.328 138.662C134.75 137.81 135.337 137.144 136.089 136.666C136.847 136.188 137.732 135.949 138.746 135.949C139.361 135.949 139.958 136.051 140.536 136.254C141.113 136.458 141.632 136.777 142.091 137.213C142.55 137.649 142.912 138.214 143.178 138.911C143.443 139.602 143.575 140.442 143.575 141.432V142.185H134.903V140.594H141.494C141.494 140.035 141.381 139.54 141.153 139.109C140.926 138.674 140.607 138.33 140.195 138.08C139.787 137.829 139.309 137.703 138.76 137.703C138.163 137.703 137.643 137.85 137.197 138.143C136.757 138.432 136.416 138.811 136.175 139.28C135.938 139.744 135.82 140.248 135.82 140.793V142.036C135.82 142.765 135.947 143.385 136.203 143.896C136.464 144.408 136.826 144.798 137.29 145.068C137.754 145.333 138.296 145.466 138.916 145.466C139.319 145.466 139.686 145.409 140.017 145.295C140.348 145.177 140.635 145.002 140.876 144.77C141.118 144.538 141.303 144.251 141.43 143.911L143.44 144.273C143.279 144.865 142.991 145.383 142.574 145.828C142.162 146.268 141.643 146.612 141.018 146.858C140.398 147.099 139.69 147.22 138.895 147.22ZM150.527 147.22C149.471 147.22 148.562 146.981 147.799 146.503C147.042 146.02 146.459 145.355 146.052 144.507C145.645 143.66 145.441 142.689 145.441 141.595C145.441 140.487 145.65 139.509 146.066 138.662C146.483 137.81 147.07 137.144 147.828 136.666C148.585 136.188 149.478 135.949 150.505 135.949C151.334 135.949 152.073 136.103 152.721 136.411C153.37 136.714 153.893 137.14 154.291 137.689C154.693 138.238 154.932 138.88 155.008 139.614H152.941C152.828 139.102 152.567 138.662 152.16 138.293C151.758 137.923 151.218 137.739 150.541 137.739C149.949 137.739 149.431 137.895 148.985 138.207C148.545 138.515 148.202 138.955 147.956 139.528C147.709 140.097 147.586 140.769 147.586 141.545C147.586 142.341 147.707 143.027 147.949 143.605C148.19 144.183 148.531 144.63 148.971 144.947C149.416 145.265 149.94 145.423 150.541 145.423C150.943 145.423 151.308 145.35 151.635 145.203C151.966 145.052 152.243 144.836 152.466 144.557C152.693 144.277 152.851 143.941 152.941 143.548H155.008C154.932 144.254 154.703 144.884 154.319 145.438C153.936 145.991 153.422 146.427 152.778 146.744C152.139 147.062 151.388 147.22 150.527 147.22ZM161.981 147.22C160.906 147.22 159.98 146.991 159.204 146.531C158.432 146.067 157.835 145.416 157.414 144.578C156.997 143.735 156.789 142.748 156.789 141.616C156.789 140.499 156.997 139.514 157.414 138.662C157.835 137.81 158.423 137.144 159.175 136.666C159.933 136.188 160.818 135.949 161.832 135.949C162.447 135.949 163.044 136.051 163.621 136.254C164.199 136.458 164.718 136.777 165.177 137.213C165.636 137.649 165.998 138.214 166.263 138.911C166.529 139.602 166.661 140.442 166.661 141.432V142.185H157.989V140.594H164.58C164.58 140.035 164.467 139.54 164.239 139.109C164.012 138.674 163.692 138.33 163.281 138.08C162.873 137.829 162.395 137.703 161.846 137.703C161.249 137.703 160.728 137.85 160.283 138.143C159.843 138.432 159.502 138.811 159.261 139.28C159.024 139.744 158.906 140.248 158.906 140.793V142.036C158.906 142.765 159.033 143.385 159.289 143.896C159.549 144.408 159.912 144.798 160.376 145.068C160.84 145.333 161.382 145.466 162.002 145.466C162.405 145.466 162.772 145.409 163.103 145.295C163.434 145.177 163.721 145.002 163.962 144.77C164.204 144.538 164.388 144.251 164.516 143.911L166.526 144.273C166.365 144.865 166.076 145.383 165.66 145.828C165.248 146.268 164.729 146.612 164.104 146.858C163.484 147.099 162.776 147.22 161.981 147.22ZM169.017 147V136.091H171.056V137.866H171.191C171.418 137.265 171.79 136.796 172.306 136.46C172.822 136.119 173.44 135.949 174.159 135.949C174.889 135.949 175.499 136.119 175.992 136.46C176.489 136.801 176.856 137.27 177.093 137.866H177.206C177.467 137.284 177.881 136.82 178.449 136.474C179.017 136.124 179.694 135.949 180.48 135.949C181.47 135.949 182.277 136.259 182.902 136.879C183.532 137.5 183.847 138.435 183.847 139.685V147H181.723V139.884C181.723 139.145 181.522 138.61 181.12 138.278C180.717 137.947 180.237 137.781 179.678 137.781C178.987 137.781 178.449 137.994 178.066 138.42C177.682 138.842 177.49 139.384 177.49 140.047V147H175.374V139.749C175.374 139.157 175.189 138.681 174.82 138.321C174.451 137.961 173.97 137.781 173.378 137.781C172.976 137.781 172.604 137.888 172.263 138.101C171.927 138.309 171.655 138.6 171.446 138.974C171.243 139.348 171.141 139.782 171.141 140.274V147H169.017ZM191.288 147.22C190.266 147.22 189.373 146.986 188.611 146.517C187.848 146.048 187.257 145.393 186.835 144.55C186.414 143.707 186.203 142.722 186.203 141.595C186.203 140.464 186.414 139.474 186.835 138.626C187.257 137.779 187.848 137.121 188.611 136.652C189.373 136.183 190.266 135.949 191.288 135.949C192.311 135.949 193.204 136.183 193.966 136.652C194.728 137.121 195.32 137.779 195.741 138.626C196.163 139.474 196.374 140.464 196.374 141.595C196.374 142.722 196.163 143.707 195.741 144.55C195.32 145.393 194.728 146.048 193.966 146.517C193.204 146.986 192.311 147.22 191.288 147.22ZM191.295 145.438C191.958 145.438 192.508 145.262 192.943 144.912C193.379 144.562 193.701 144.095 193.909 143.513C194.122 142.93 194.229 142.289 194.229 141.588C194.229 140.892 194.122 140.253 193.909 139.67C193.701 139.083 193.379 138.612 192.943 138.257C192.508 137.902 191.958 137.724 191.295 137.724C190.628 137.724 190.074 137.902 189.634 138.257C189.198 138.612 188.874 139.083 188.661 139.67C188.452 140.253 188.348 140.892 188.348 141.588C188.348 142.289 188.452 142.93 188.661 143.513C188.874 144.095 189.198 144.562 189.634 144.912C190.074 145.262 190.628 145.438 191.295 145.438ZM206.919 138.754L204.994 139.095C204.913 138.849 204.786 138.615 204.61 138.392C204.44 138.17 204.208 137.987 203.914 137.845C203.621 137.703 203.254 137.632 202.814 137.632C202.212 137.632 201.71 137.767 201.308 138.037C200.905 138.302 200.704 138.645 200.704 139.067C200.704 139.431 200.839 139.725 201.109 139.947C201.379 140.17 201.815 140.352 202.416 140.494L204.149 140.892C205.153 141.124 205.901 141.482 206.393 141.964C206.886 142.447 207.132 143.075 207.132 143.847C207.132 144.5 206.942 145.082 206.564 145.594C206.19 146.1 205.666 146.498 204.994 146.787C204.326 147.076 203.552 147.22 202.672 147.22C201.45 147.22 200.453 146.96 199.681 146.439C198.91 145.913 198.436 145.168 198.261 144.202L200.314 143.889C200.441 144.424 200.704 144.829 201.102 145.104C201.5 145.374 202.018 145.509 202.657 145.509C203.353 145.509 203.91 145.364 204.326 145.075C204.743 144.782 204.951 144.424 204.951 144.003C204.951 143.662 204.824 143.375 204.568 143.143C204.317 142.911 203.931 142.736 203.41 142.618L201.564 142.213C200.546 141.981 199.793 141.612 199.305 141.105C198.822 140.598 198.581 139.957 198.581 139.18C198.581 138.536 198.761 137.973 199.12 137.49C199.48 137.007 199.977 136.631 200.612 136.361C201.246 136.086 201.973 135.949 202.792 135.949C203.971 135.949 204.899 136.205 205.576 136.716C206.253 137.223 206.701 137.902 206.919 138.754ZM219.355 147.22C218.332 147.22 217.44 146.986 216.677 146.517C215.915 146.048 215.323 145.393 214.902 144.55C214.48 143.707 214.27 142.722 214.27 141.595C214.27 140.464 214.48 139.474 214.902 138.626C215.323 137.779 215.915 137.121 216.677 136.652C217.44 136.183 218.332 135.949 219.355 135.949C220.377 135.949 221.27 136.183 222.032 136.652C222.795 137.121 223.386 137.779 223.808 138.626C224.229 139.474 224.44 140.464 224.44 141.595C224.44 142.722 224.229 143.707 223.808 144.55C223.386 145.393 222.795 146.048 222.032 146.517C221.27 146.986 220.377 147.22 219.355 147.22ZM219.362 145.438C220.025 145.438 220.574 145.262 221.01 144.912C221.445 144.562 221.767 144.095 221.975 143.513C222.189 142.93 222.295 142.289 222.295 141.588C222.295 140.892 222.189 140.253 221.975 139.67C221.767 139.083 221.445 138.612 221.01 138.257C220.574 137.902 220.025 137.724 219.362 137.724C218.694 137.724 218.14 137.902 217.7 138.257C217.264 138.612 216.94 139.083 216.727 139.67C216.519 140.253 216.414 140.892 216.414 141.588C216.414 142.289 216.519 142.93 216.727 143.513C216.94 144.095 217.264 144.562 217.7 144.912C218.14 145.262 218.694 145.438 219.362 145.438ZM237.295 136.091V137.795H231.13V136.091H237.295ZM232.821 147V134.827C232.821 134.145 232.97 133.579 233.268 133.129C233.566 132.675 233.962 132.336 234.454 132.114C234.947 131.886 235.482 131.773 236.059 131.773C236.485 131.773 236.85 131.808 237.153 131.879C237.456 131.946 237.681 132.007 237.828 132.064L237.331 133.783C237.231 133.754 237.103 133.721 236.947 133.683C236.791 133.641 236.601 133.619 236.379 133.619C235.863 133.619 235.493 133.747 235.271 134.003C235.053 134.259 234.944 134.628 234.944 135.111V147H232.821ZM243.758 147.22C242.683 147.22 241.758 146.991 240.981 146.531C240.209 146.067 239.613 145.416 239.191 144.578C238.775 143.735 238.566 142.748 238.566 141.616C238.566 140.499 238.775 139.514 239.191 138.662C239.613 137.81 240.2 137.144 240.953 136.666C241.71 136.188 242.596 135.949 243.609 135.949C244.225 135.949 244.821 136.051 245.399 136.254C245.976 136.458 246.495 136.777 246.954 137.213C247.413 137.649 247.776 138.214 248.041 138.911C248.306 139.602 248.439 140.442 248.439 141.432V142.185H239.767V140.594H246.358C246.358 140.035 246.244 139.54 246.017 139.109C245.789 138.674 245.47 138.33 245.058 138.08C244.651 137.829 244.172 137.703 243.623 137.703C243.027 137.703 242.506 137.85 242.061 138.143C241.62 138.432 241.279 138.811 241.038 139.28C240.801 139.744 240.683 140.248 240.683 140.793V142.036C240.683 142.765 240.811 143.385 241.066 143.896C241.327 144.408 241.689 144.798 242.153 145.068C242.617 145.333 243.159 145.466 243.779 145.466C244.182 145.466 244.549 145.409 244.88 145.295C245.212 145.177 245.498 145.002 245.74 144.77C245.981 144.538 246.166 144.251 246.294 143.911L248.304 144.273C248.143 144.865 247.854 145.383 247.437 145.828C247.025 146.268 246.507 146.612 245.882 146.858C245.261 147.099 244.554 147.22 243.758 147.22ZM255.496 147.22C254.422 147.22 253.496 146.991 252.719 146.531C251.948 146.067 251.351 145.416 250.93 144.578C250.513 143.735 250.305 142.748 250.305 141.616C250.305 140.499 250.513 139.514 250.93 138.662C251.351 137.81 251.938 137.144 252.691 136.666C253.449 136.188 254.334 135.949 255.347 135.949C255.963 135.949 256.559 136.051 257.137 136.254C257.715 136.458 258.233 136.777 258.692 137.213C259.152 137.649 259.514 138.214 259.779 138.911C260.044 139.602 260.177 140.442 260.177 141.432V142.185H251.505V140.594H258.096C258.096 140.035 257.982 139.54 257.755 139.109C257.528 138.674 257.208 138.33 256.796 138.08C256.389 137.829 255.911 137.703 255.362 137.703C254.765 137.703 254.244 137.85 253.799 138.143C253.359 138.432 253.018 138.811 252.776 139.28C252.54 139.744 252.421 140.248 252.421 140.793V142.036C252.421 142.765 252.549 143.385 252.805 143.896C253.065 144.408 253.427 144.798 253.891 145.068C254.355 145.333 254.897 145.466 255.518 145.466C255.92 145.466 256.287 145.409 256.619 145.295C256.95 145.177 257.237 145.002 257.478 144.77C257.719 144.538 257.904 144.251 258.032 143.911L260.042 144.273C259.881 144.865 259.592 145.383 259.175 145.828C258.763 146.268 258.245 146.612 257.62 146.858C257 147.099 256.292 147.22 255.496 147.22ZM266.617 147.213C265.736 147.213 264.95 146.988 264.259 146.538C263.572 146.084 263.033 145.437 262.64 144.599C262.251 143.757 262.057 142.746 262.057 141.567C262.057 140.388 262.254 139.379 262.647 138.541C263.044 137.703 263.589 137.062 264.28 136.616C264.971 136.171 265.755 135.949 266.631 135.949C267.308 135.949 267.853 136.062 268.265 136.29C268.681 136.512 269.003 136.773 269.23 137.071C269.462 137.369 269.642 137.632 269.77 137.859H269.898V132.455H272.022V147H269.948V145.303H269.77C269.642 145.535 269.458 145.8 269.216 146.098C268.98 146.396 268.653 146.657 268.236 146.879C267.819 147.102 267.28 147.213 266.617 147.213ZM267.086 145.402C267.696 145.402 268.212 145.241 268.634 144.919C269.06 144.592 269.382 144.14 269.6 143.562C269.822 142.985 269.934 142.312 269.934 141.545C269.934 140.788 269.825 140.125 269.607 139.557C269.389 138.989 269.069 138.546 268.648 138.229C268.227 137.911 267.706 137.753 267.086 137.753C266.446 137.753 265.914 137.919 265.488 138.25C265.061 138.581 264.739 139.034 264.522 139.607C264.309 140.179 264.202 140.826 264.202 141.545C264.202 142.275 264.311 142.93 264.529 143.513C264.747 144.095 265.069 144.557 265.495 144.898C265.926 145.234 266.456 145.402 267.086 145.402ZM275.223 147V132.455H277.347V137.859H277.474C277.598 137.632 277.775 137.369 278.007 137.071C278.239 136.773 278.561 136.512 278.973 136.29C279.385 136.062 279.929 135.949 280.607 135.949C281.487 135.949 282.273 136.171 282.964 136.616C283.656 137.062 284.198 137.703 284.591 138.541C284.989 139.379 285.188 140.388 285.188 141.567C285.188 142.746 284.991 143.757 284.598 144.599C284.205 145.437 283.665 146.084 282.979 146.538C282.292 146.988 281.509 147.213 280.628 147.213C279.965 147.213 279.423 147.102 279.001 146.879C278.585 146.657 278.258 146.396 278.021 146.098C277.785 145.8 277.602 145.535 277.474 145.303H277.297V147H275.223ZM277.304 141.545C277.304 142.312 277.415 142.985 277.638 143.562C277.86 144.14 278.182 144.592 278.604 144.919C279.025 145.241 279.541 145.402 280.152 145.402C280.786 145.402 281.317 145.234 281.743 144.898C282.169 144.557 282.491 144.095 282.709 143.513C282.931 142.93 283.043 142.275 283.043 141.545C283.043 140.826 282.934 140.179 282.716 139.607C282.503 139.034 282.181 138.581 281.75 138.25C281.324 137.919 280.791 137.753 280.152 137.753C279.536 137.753 279.016 137.911 278.589 138.229C278.168 138.546 277.848 138.989 277.631 139.557C277.413 140.125 277.304 140.788 277.304 141.545ZM290.747 147.241C290.056 147.241 289.431 147.114 288.872 146.858C288.313 146.598 287.87 146.221 287.544 145.729C287.222 145.236 287.061 144.633 287.061 143.918C287.061 143.302 287.179 142.795 287.416 142.398C287.653 142 287.972 141.685 288.375 141.453C288.777 141.221 289.227 141.046 289.724 140.928C290.221 140.809 290.728 140.719 291.244 140.658C291.897 140.582 292.428 140.52 292.835 140.473C293.242 140.421 293.538 140.338 293.723 140.224C293.907 140.111 294 139.926 294 139.67V139.621C294 139 293.824 138.52 293.474 138.179C293.128 137.838 292.612 137.668 291.926 137.668C291.211 137.668 290.647 137.826 290.235 138.143C289.828 138.456 289.547 138.804 289.39 139.188L287.395 138.733C287.631 138.07 287.977 137.535 288.431 137.128C288.891 136.716 289.419 136.418 290.015 136.233C290.612 136.044 291.239 135.949 291.897 135.949C292.333 135.949 292.795 136.001 293.282 136.105C293.775 136.205 294.234 136.389 294.66 136.659C295.091 136.929 295.444 137.315 295.718 137.817C295.993 138.314 296.13 138.96 296.13 139.756V147H294.056V145.509H293.971C293.834 145.783 293.628 146.053 293.353 146.318C293.079 146.583 292.726 146.804 292.295 146.979C291.864 147.154 291.348 147.241 290.747 147.241ZM291.208 145.537C291.796 145.537 292.297 145.421 292.714 145.189C293.136 144.957 293.455 144.654 293.673 144.28C293.895 143.901 294.007 143.496 294.007 143.065V141.659C293.931 141.735 293.784 141.806 293.566 141.872C293.353 141.934 293.109 141.988 292.835 142.036C292.56 142.078 292.293 142.118 292.032 142.156C291.772 142.189 291.554 142.218 291.379 142.241C290.967 142.294 290.591 142.381 290.25 142.504C289.913 142.627 289.644 142.805 289.44 143.037C289.241 143.264 289.142 143.567 289.142 143.946C289.142 144.472 289.336 144.869 289.724 145.139C290.112 145.404 290.607 145.537 291.208 145.537ZM303.554 147.22C302.498 147.22 301.589 146.981 300.827 146.503C300.069 146.02 299.487 145.355 299.08 144.507C298.672 143.66 298.469 142.689 298.469 141.595C298.469 140.487 298.677 139.509 299.094 138.662C299.51 137.81 300.098 137.144 300.855 136.666C301.613 136.188 302.505 135.949 303.533 135.949C304.361 135.949 305.1 136.103 305.749 136.411C306.397 136.714 306.92 137.14 307.318 137.689C307.721 138.238 307.96 138.88 308.036 139.614H305.969C305.855 139.102 305.595 138.662 305.188 138.293C304.785 137.923 304.245 137.739 303.568 137.739C302.976 137.739 302.458 137.895 302.013 138.207C301.572 138.515 301.229 138.955 300.983 139.528C300.737 140.097 300.614 140.769 300.614 141.545C300.614 142.341 300.734 143.027 300.976 143.605C301.217 144.183 301.558 144.63 301.999 144.947C302.444 145.265 302.967 145.423 303.568 145.423C303.971 145.423 304.335 145.35 304.662 145.203C304.993 145.052 305.27 144.836 305.493 144.557C305.72 144.277 305.879 143.941 305.969 143.548H308.036C307.96 144.254 307.73 144.884 307.347 145.438C306.963 145.991 306.449 146.427 305.805 146.744C305.166 147.062 304.416 147.22 303.554 147.22ZM312.26 143.3L312.245 140.707H312.615L316.961 136.091H319.504L314.547 141.347H314.213L312.26 143.3ZM310.306 147V132.455H312.43V147H310.306ZM317.196 147L313.289 141.815L314.752 140.331L319.802 147H317.196ZM324.117 132.455L323.932 142.817H321.965L321.78 132.455H324.117ZM322.952 147.135C322.559 147.135 322.223 146.998 321.944 146.723C321.664 146.444 321.527 146.107 321.532 145.714C321.527 145.326 321.664 144.995 321.944 144.72C322.223 144.441 322.559 144.301 322.952 144.301C323.336 144.301 323.667 144.441 323.946 144.72C324.226 144.995 324.368 145.326 324.373 145.714C324.368 145.975 324.299 146.214 324.167 146.432C324.039 146.645 323.868 146.815 323.655 146.943C323.442 147.071 323.208 147.135 322.952 147.135Z" fill="#F4F4F5"/>
<path d="M114 180C114 177.791 115.791 176 118 176H283C285.209 176 287 177.791 287 180V212C287 214.209 285.209 216 283 216H118C115.791 216 114 214.209 114 212V180Z" fill="#27272A"/>
<path d="M142.95 197.699H144.461L145.525 199.086L146.028 199.702L147.723 201.915H146.152L145.018 200.438L144.631 199.901L142.95 197.699ZM148.051 195.909C148.051 196.996 147.852 197.931 147.454 198.713C147.057 199.492 146.511 200.092 145.819 200.513C145.129 200.93 144.345 201.139 143.467 201.139C142.586 201.139 141.798 200.93 141.106 200.513C140.416 200.092 139.873 199.49 139.475 198.708C139.077 197.926 138.878 196.993 138.878 195.909C138.878 194.822 139.077 193.889 139.475 193.11C139.873 192.328 140.416 191.728 141.106 191.31C141.798 190.889 142.586 190.679 143.467 190.679C144.345 190.679 145.129 190.889 145.819 191.31C146.511 191.728 147.057 192.328 147.454 193.11C147.852 193.889 148.051 194.822 148.051 195.909ZM146.53 195.909C146.53 195.08 146.395 194.383 146.127 193.816C145.862 193.246 145.497 192.815 145.033 192.523C144.573 192.228 144.05 192.081 143.467 192.081C142.881 192.081 142.357 192.228 141.896 192.523C141.435 192.815 141.071 193.246 140.802 193.816C140.537 194.383 140.405 195.08 140.405 195.909C140.405 196.738 140.537 197.437 140.802 198.007C141.071 198.574 141.435 199.005 141.896 199.3C142.357 199.591 142.881 199.737 143.467 199.737C144.05 199.737 144.573 199.591 145.033 199.3C145.497 199.005 145.862 198.574 146.127 198.007C146.395 197.437 146.53 196.738 146.53 195.909ZM154.684 197.833V193.364H156.176V201H154.714V199.678H154.635C154.459 200.085 154.177 200.425 153.789 200.697C153.405 200.965 152.926 201.099 152.353 201.099C151.862 201.099 151.428 200.992 151.05 200.776C150.676 200.558 150.381 200.234 150.165 199.807C149.953 199.379 149.847 198.851 149.847 198.221V193.364H151.333V198.042C151.333 198.562 151.478 198.977 151.766 199.285C152.054 199.593 152.429 199.747 152.89 199.747C153.168 199.747 153.445 199.678 153.72 199.538C153.998 199.399 154.229 199.189 154.411 198.907C154.596 198.625 154.688 198.267 154.684 197.833ZM161.464 201.154C160.712 201.154 160.064 200.993 159.52 200.672C158.98 200.347 158.563 199.891 158.268 199.305C157.976 198.715 157.83 198.024 157.83 197.232C157.83 196.449 157.976 195.76 158.268 195.163C158.563 194.567 158.974 194.101 159.501 193.766C160.031 193.432 160.651 193.264 161.36 193.264C161.791 193.264 162.208 193.335 162.613 193.478C163.017 193.621 163.38 193.844 163.702 194.149C164.023 194.454 164.277 194.85 164.462 195.337C164.648 195.821 164.741 196.41 164.741 197.102V197.629H158.67V196.516H163.284C163.284 196.125 163.204 195.778 163.045 195.477C162.886 195.172 162.662 194.931 162.374 194.756C162.089 194.58 161.754 194.492 161.37 194.492C160.952 194.492 160.588 194.595 160.276 194.8C159.968 195.003 159.729 195.268 159.56 195.596C159.394 195.921 159.312 196.274 159.312 196.655V197.525C159.312 198.035 159.401 198.469 159.58 198.827C159.762 199.185 160.016 199.459 160.341 199.648C160.666 199.833 161.045 199.926 161.479 199.926C161.761 199.926 162.018 199.886 162.25 199.807C162.482 199.724 162.682 199.601 162.851 199.439C163.02 199.277 163.15 199.076 163.239 198.837L164.646 199.091C164.533 199.505 164.331 199.868 164.04 200.18C163.751 200.488 163.388 200.728 162.951 200.901C162.517 201.07 162.021 201.154 161.464 201.154ZM166.39 201V193.364H167.827V194.577H167.906C168.045 194.166 168.291 193.843 168.642 193.607C168.997 193.369 169.398 193.249 169.845 193.249C169.938 193.249 170.047 193.253 170.173 193.259C170.303 193.266 170.404 193.274 170.477 193.284V194.706C170.417 194.689 170.311 194.671 170.158 194.651C170.006 194.628 169.853 194.616 169.701 194.616C169.35 194.616 169.036 194.691 168.761 194.84C168.49 194.986 168.274 195.19 168.115 195.452C167.956 195.71 167.876 196.005 167.876 196.337V201H166.39ZM174.706 201.154C173.99 201.154 173.365 200.99 172.832 200.662C172.298 200.334 171.884 199.875 171.589 199.285C171.294 198.695 171.146 198.005 171.146 197.217C171.146 196.424 171.294 195.732 171.589 195.138C171.884 194.545 172.298 194.085 172.832 193.756C173.365 193.428 173.99 193.264 174.706 193.264C175.422 193.264 176.047 193.428 176.58 193.756C177.114 194.085 177.528 194.545 177.823 195.138C178.118 195.732 178.266 196.424 178.266 197.217C178.266 198.005 178.118 198.695 177.823 199.285C177.528 199.875 177.114 200.334 176.58 200.662C176.047 200.99 175.422 201.154 174.706 201.154ZM174.711 199.906C175.175 199.906 175.56 199.784 175.865 199.538C176.169 199.293 176.395 198.967 176.541 198.559C176.69 198.151 176.764 197.702 176.764 197.212C176.764 196.724 176.69 196.277 176.541 195.869C176.395 195.458 176.169 195.129 175.865 194.88C175.56 194.631 175.175 194.507 174.711 194.507C174.244 194.507 173.856 194.631 173.548 194.88C173.243 195.129 173.016 195.458 172.867 195.869C172.721 196.277 172.648 196.724 172.648 197.212C172.648 197.702 172.721 198.151 172.867 198.559C173.016 198.967 173.243 199.293 173.548 199.538C173.856 199.784 174.244 199.906 174.711 199.906ZM186.921 201.154C186.169 201.154 185.521 200.993 184.977 200.672C184.437 200.347 184.02 199.891 183.725 199.305C183.433 198.715 183.287 198.024 183.287 197.232C183.287 196.449 183.433 195.76 183.725 195.163C184.02 194.567 184.431 194.101 184.958 193.766C185.488 193.432 186.108 193.264 186.817 193.264C187.248 193.264 187.665 193.335 188.07 193.478C188.474 193.621 188.837 193.844 189.159 194.149C189.48 194.454 189.734 194.85 189.919 195.337C190.105 195.821 190.198 196.41 190.198 197.102V197.629H184.127V196.516H188.741C188.741 196.125 188.661 195.778 188.502 195.477C188.343 195.172 188.119 194.931 187.831 194.756C187.546 194.58 187.211 194.492 186.827 194.492C186.409 194.492 186.045 194.595 185.733 194.8C185.425 195.003 185.186 195.268 185.017 195.596C184.852 195.921 184.769 196.274 184.769 196.655V197.525C184.769 198.035 184.858 198.469 185.037 198.827C185.219 199.185 185.473 199.459 185.798 199.648C186.123 199.833 186.502 199.926 186.936 199.926C187.218 199.926 187.475 199.886 187.707 199.807C187.939 199.724 188.139 199.601 188.308 199.439C188.477 199.277 188.607 199.076 188.696 198.837L190.103 199.091C189.99 199.505 189.788 199.868 189.497 200.18C189.208 200.488 188.845 200.728 188.408 200.901C187.974 201.07 187.478 201.154 186.921 201.154ZM193.333 196.466V201H191.847V193.364H193.274V194.607H193.368C193.544 194.202 193.819 193.877 194.194 193.632C194.571 193.387 195.047 193.264 195.62 193.264C196.141 193.264 196.596 193.374 196.988 193.592C197.379 193.808 197.682 194.129 197.897 194.557C198.113 194.984 198.221 195.513 198.221 196.143V201H196.734V196.322C196.734 195.768 196.59 195.336 196.301 195.024C196.013 194.709 195.617 194.552 195.113 194.552C194.769 194.552 194.462 194.626 194.194 194.776C193.928 194.925 193.718 195.143 193.562 195.432C193.41 195.717 193.333 196.062 193.333 196.466ZM206.473 193.364L203.704 201H202.113L199.339 193.364H200.935L202.869 199.24H202.949L204.877 193.364H206.473ZM207.87 201V193.364H209.357V201H207.87ZM208.621 192.185C208.363 192.185 208.141 192.099 207.955 191.927C207.773 191.751 207.681 191.542 207.681 191.3C207.681 191.055 207.773 190.846 207.955 190.674C208.141 190.498 208.363 190.411 208.621 190.411C208.88 190.411 209.1 190.498 209.282 190.674C209.468 190.846 209.561 191.055 209.561 191.3C209.561 191.542 209.468 191.751 209.282 191.927C209.1 192.099 208.88 192.185 208.621 192.185ZM213.579 201.169C213.095 201.169 212.658 201.08 212.267 200.901C211.875 200.718 211.566 200.455 211.337 200.11C211.111 199.765 210.999 199.343 210.999 198.842C210.999 198.411 211.082 198.057 211.247 197.778C211.413 197.5 211.637 197.28 211.919 197.117C212.2 196.955 212.515 196.832 212.863 196.749C213.211 196.666 213.566 196.603 213.927 196.56C214.384 196.507 214.756 196.464 215.041 196.431C215.326 196.395 215.533 196.337 215.662 196.257C215.791 196.178 215.856 196.048 215.856 195.869V195.835C215.856 195.4 215.733 195.064 215.488 194.825C215.246 194.587 214.885 194.467 214.404 194.467C213.904 194.467 213.509 194.578 213.221 194.8C212.936 195.019 212.739 195.263 212.629 195.531L211.232 195.213C211.398 194.749 211.64 194.375 211.958 194.089C212.28 193.801 212.649 193.592 213.067 193.463C213.485 193.33 213.924 193.264 214.384 193.264C214.689 193.264 215.012 193.301 215.354 193.374C215.699 193.443 216.02 193.572 216.318 193.761C216.62 193.95 216.867 194.22 217.059 194.572C217.251 194.92 217.347 195.372 217.347 195.929V201H215.896V199.956H215.836C215.74 200.148 215.596 200.337 215.404 200.523C215.211 200.708 214.964 200.862 214.663 200.985C214.361 201.108 214 201.169 213.579 201.169ZM213.902 199.976C214.313 199.976 214.664 199.895 214.956 199.732C215.251 199.57 215.475 199.358 215.627 199.096C215.783 198.831 215.861 198.547 215.861 198.246V197.261C215.808 197.314 215.705 197.364 215.553 197.411C215.404 197.454 215.233 197.492 215.041 197.525C214.848 197.555 214.661 197.583 214.479 197.609C214.297 197.633 214.144 197.652 214.021 197.669C213.733 197.705 213.47 197.767 213.231 197.853C212.996 197.939 212.807 198.063 212.664 198.226C212.525 198.385 212.455 198.597 212.455 198.862C212.455 199.23 212.591 199.509 212.863 199.697C213.135 199.883 213.481 199.976 213.902 199.976ZM219.327 201V193.364H220.764V194.577H220.844C220.983 194.166 221.228 193.843 221.58 193.607C221.934 193.369 222.335 193.249 222.783 193.249C222.875 193.249 222.985 193.253 223.111 193.259C223.24 193.266 223.341 193.274 223.414 193.284V194.706C223.354 194.689 223.248 194.671 223.096 194.651C222.943 194.628 222.791 194.616 222.638 194.616C222.287 194.616 221.974 194.691 221.699 194.84C221.427 194.986 221.212 195.19 221.053 195.452C220.893 195.71 220.814 196.005 220.814 196.337V201H219.327ZM231.622 201.154C230.906 201.154 230.281 200.99 229.748 200.662C229.214 200.334 228.8 199.875 228.505 199.285C228.21 198.695 228.062 198.005 228.062 197.217C228.062 196.424 228.21 195.732 228.505 195.138C228.8 194.545 229.214 194.085 229.748 193.756C230.281 193.428 230.906 193.264 231.622 193.264C232.338 193.264 232.963 193.428 233.496 193.756C234.03 194.085 234.444 194.545 234.739 195.138C235.034 195.732 235.182 196.424 235.182 197.217C235.182 198.005 235.034 198.695 234.739 199.285C234.444 199.875 234.03 200.334 233.496 200.662C232.963 200.99 232.338 201.154 231.622 201.154ZM231.627 199.906C232.091 199.906 232.476 199.784 232.781 199.538C233.085 199.293 233.311 198.967 233.457 198.559C233.606 198.151 233.68 197.702 233.68 197.212C233.68 196.724 233.606 196.277 233.457 195.869C233.311 195.458 233.085 195.129 232.781 194.88C232.476 194.631 232.091 194.507 231.627 194.507C231.16 194.507 230.772 194.631 230.464 194.88C230.159 195.129 229.932 195.458 229.783 195.869C229.637 196.277 229.564 196.724 229.564 197.212C229.564 197.702 229.637 198.151 229.783 198.559C229.932 198.967 230.159 199.293 230.464 199.538C230.772 199.784 231.16 199.906 231.627 199.906ZM241.678 197.833V193.364H243.17V201H241.708V199.678H241.629C241.453 200.085 241.171 200.425 240.784 200.697C240.399 200.965 239.92 201.099 239.347 201.099C238.856 201.099 238.422 200.992 238.044 200.776C237.67 200.558 237.375 200.234 237.159 199.807C236.947 199.379 236.841 198.851 236.841 198.221V193.364H238.328V198.042C238.328 198.562 238.472 198.977 238.76 199.285C239.048 199.593 239.423 199.747 239.884 199.747C240.162 199.747 240.439 199.678 240.714 199.538C240.992 199.399 241.223 199.189 241.405 198.907C241.591 198.625 241.682 198.267 241.678 197.833ZM248.732 193.364V194.557H244.561V193.364H248.732ZM245.679 191.534H247.166V198.758C247.166 199.046 247.209 199.263 247.295 199.409C247.381 199.552 247.492 199.649 247.628 199.702C247.767 199.752 247.918 199.777 248.081 199.777C248.2 199.777 248.304 199.769 248.394 199.752C248.483 199.736 248.553 199.722 248.603 199.712L248.871 200.94C248.785 200.973 248.662 201.007 248.503 201.04C248.344 201.076 248.145 201.096 247.907 201.099C247.516 201.106 247.151 201.036 246.813 200.891C246.475 200.745 246.201 200.519 245.993 200.214C245.784 199.91 245.679 199.527 245.679 199.066V191.534ZM250.376 201V193.364H251.813V194.577H251.893C252.032 194.166 252.277 193.843 252.628 193.607C252.983 193.369 253.384 193.249 253.831 193.249C253.924 193.249 254.034 193.253 254.16 193.259C254.289 193.266 254.39 193.274 254.463 193.284V194.706C254.403 194.689 254.297 194.671 254.145 194.651C253.992 194.628 253.84 194.616 253.687 194.616C253.336 194.616 253.023 194.691 252.748 194.84C252.476 194.986 252.26 195.19 252.101 195.452C251.942 195.71 251.863 196.005 251.863 196.337V201H250.376ZM258.692 201.154C257.977 201.154 257.352 200.99 256.818 200.662C256.285 200.334 255.87 199.875 255.575 199.285C255.28 198.695 255.133 198.005 255.133 197.217C255.133 196.424 255.28 195.732 255.575 195.138C255.87 194.545 256.285 194.085 256.818 193.756C257.352 193.428 257.977 193.264 258.692 193.264C259.408 193.264 260.033 193.428 260.567 193.756C261.1 194.085 261.515 194.545 261.81 195.138C262.105 195.732 262.252 196.424 262.252 197.217C262.252 198.005 262.105 198.695 261.81 199.285C261.515 199.875 261.1 200.334 260.567 200.662C260.033 200.99 259.408 201.154 258.692 201.154ZM258.697 199.906C259.161 199.906 259.546 199.784 259.851 199.538C260.156 199.293 260.381 198.967 260.527 198.559C260.676 198.151 260.751 197.702 260.751 197.212C260.751 196.724 260.676 196.277 260.527 195.869C260.381 195.458 260.156 195.129 259.851 194.88C259.546 194.631 259.161 194.507 258.697 194.507C258.23 194.507 257.842 194.631 257.534 194.88C257.229 195.129 257.002 195.458 256.853 195.869C256.707 196.277 256.634 196.724 256.634 197.212C256.634 197.702 256.707 198.151 256.853 198.559C257.002 198.967 257.229 199.293 257.534 199.538C257.842 199.784 258.23 199.906 258.697 199.906Z" fill="#F4F4F5"/>
</g>
<defs>
<filter id="filter0_d_100_3600" x="0" y="0" width="400" height="328" filterUnits="userSpaceOnUse" color-interpolation-filters="sRGB">
<feFlood flood-opacity="0" result="BackgroundImageFix"/>
<feColorMatrix in="SourceAlpha" type="matrix" values="0 0 0 0 0 0 0 0 0 0 0 0 0 0 0 0 0 0 127 0" result="hardAlpha"/>
<feOffset dy="8"/>
<feGaussianBlur stdDeviation="16"/>
<feComposite in2="hardAlpha" operator="out"/>
<feColorMatrix type="matrix" values="0 0 0 0 0 0 0 0 0 0 0 0 0 0 0 0 0 0 0.15 0"/>
<feBlend mode="normal" in2="BackgroundImageFix" result="effect1_dropShadow_100_3600"/>
<feBlend mode="normal" in="SourceGraphic" in2="effect1_dropShadow_100_3600" result="shape"/>
</filter>
</defs>
</svg>
